<?xml version="1.0" encoding="UTF-8"?> <svg xmlns="http://www.w3.org/2000/svg" width="80" height="95" viewBox="0 0 80 95" fill="none"><g clip-path="url(#clip0_1829_1423)"><path d="M80.0006 27.5283C80.0006 27.4734 79.748 14.2615 78.0453 11.5191C74.2224 5.35838 59.8208 0.00549925 40.1187 3.4701e-06C20.4222 -0.00549231 2.90074 6.51799 0.978324 12.2776C-1.62518 20.0761 -0.202591 61.1185 20.1421 82.7939C29.4246 92.6808 38.3666 95.0055 40.1352 95.0055C41.9038 95.0055 50.4558 92.9391 60.4634 82.8214C72.8328 70.324 77.4411 52.9573 79.1328 40.5863C79.77 35.9314 80.0281 27.5503 80.0006 27.5283ZM75.6065 42.1141C74.0741 53.8366 69.8777 70.291 58.6344 82.1344C49.5331 91.719 41.7391 93.681 40.1517 93.681C38.5643 93.681 30.265 91.6256 21.9766 82.1124C8.67348 66.8506 4.22446 42.8451 3.6038 28.012C3.58183 27.5833 3.57084 27.1601 3.55986 26.7425C3.38958 20.9059 3.83998 16.6797 4.55402 15.2947C7.17949 10.2276 25.0525 5.06711 39.9704 5.06711H40.1407C54.4545 5.10008 71.2564 8.66684 74.6179 14.5748C75.4967 16.1136 76.2766 20.4993 76.4469 26.5116C76.4579 26.9403 76.4689 27.3745 76.4744 27.8196C76.5348 32.0129 76.2931 36.9041 75.612 42.1196" fill="white"></path><path d="M49.95 68.1311C46.4128 65.0755 42.3372 62.8167 38.7286 63.6356C35.6417 64.339 33.9061 67.1419 33.6205 68.4609C32.7307 67.3947 32.4066 67.0814 32.456 66.7517C32.8954 63.751 40.8872 56.6395 49.95 68.1366" fill="white"></path><path d="M39.8324 29.8311C38.8932 38.1132 36.4764 64.6303 21.4102 71.7858C38.1352 71.522 41.7988 36.6403 39.8324 29.8311Z" fill="white"></path><path d="M42.7495 41.7898C42.4035 37.7998 42.4474 33.9473 42.8264 30.3695C43.145 27.3798 40.6239 26.6599 41.3764 24.1318C40.2339 26.4785 42.409 27.182 41.8048 30.2816C40.9644 34.5958 40.7008 39.52 41.1512 44.7025C42.5573 60.8051 51.2027 73.3135 59.3977 72.6376C55.6407 70.5162 44.2106 58.5244 42.755 41.7843" fill="white"></path><path d="M39.1681 28.2867C39.8986 27.5118 41.1674 25.7641 40.5797 23.5273C40.706 26.6215 38.4376 27.891 38.2069 28.2372C37.3116 29.5947 40.4149 29.3254 40.5138 29.3803C39.9041 29.1165 38.3003 29.2045 39.1626 28.2867" fill="white"></path><path d="M36.9593 8.90323L37.201 17.4382L39.2882 17.3777L39.0465 8.84277L36.9648 8.90323H36.9593ZM65.3122 13.9154C65.5045 13.7505 65.7242 13.6406 65.9714 13.5911C66.213 13.5581 66.4986 13.5801 66.8282 13.6626L69.7173 14.388L70.1348 12.7338L67.2182 12.0028C65.8945 11.6731 64.8399 11.7775 64.0434 12.3216C63.2415 12.8657 62.6593 13.8659 62.2913 15.3168C62.1046 16.0587 62.0496 16.7292 62.1265 17.3173C62.1979 17.9053 62.4012 18.4274 62.7307 18.8891C63.0053 19.2573 63.3129 19.5376 63.659 19.7354C63.994 19.9333 64.4719 20.1091 65.1035 20.2685L68.0695 21.0104L68.4925 19.3342L65.6088 18.6088C64.9387 18.4384 64.5158 18.1636 64.3401 17.7734C64.1533 17.3832 64.1698 16.7622 64.384 15.9158C64.6312 14.9211 64.9497 14.2561 65.3287 13.9209M45.8464 12.393L43.5779 12.3106C43.2759 12.2996 43.0397 12.2282 42.8694 12.0908C42.7321 11.9534 42.6717 11.7665 42.6772 11.5302C42.6881 11.195 42.7815 10.9641 42.9628 10.8432C43.1385 10.7003 43.4461 10.6399 43.8855 10.6564L48.2686 10.8103L48.3346 9.04612L43.6933 8.87575C42.6717 8.83728 41.9082 9.02413 41.4084 9.44181C40.903 9.85949 40.6284 10.5245 40.5955 11.4368C40.568 12.2996 40.7712 12.9426 41.2161 13.3713C41.694 13.7945 42.4025 14.0253 43.3528 14.0638L45.3795 14.1352C45.5992 14.1407 45.7695 14.1627 45.9013 14.1902C46.0277 14.2176 46.132 14.2616 46.2144 14.3276C46.3627 14.4759 46.4341 14.6903 46.4231 14.9706C46.4121 15.2454 46.3243 15.4377 46.1485 15.5531C46.0551 15.6246 45.9343 15.6685 45.7805 15.685C45.6157 15.7125 45.4235 15.7235 45.2093 15.718L40.7822 15.5586L40.7163 17.3118L45.4125 17.4821C46.4231 17.5206 47.1811 17.3337 47.6919 16.9271C48.1972 16.5204 48.4664 15.8719 48.4993 14.9871C48.5323 14.1022 48.3455 13.4592 47.9391 13.058C47.5326 12.6568 46.8351 12.437 45.8464 12.3985M17.1585 13.0086C16.8509 12.6733 16.4774 12.4315 16.0325 12.2886C15.9006 12.2502 15.7523 12.2172 15.5931 12.2062C15.4393 12.2062 15.2525 12.2062 15.0273 12.2282C14.6483 12.2611 14.154 12.3656 13.5388 12.5414L9.82031 13.5911L12.1327 21.8073L14.0551 21.2632L13.2752 18.4934L15.1372 17.9658C15.4832 17.8668 15.7743 17.7734 16.016 17.6745C16.2467 17.5866 16.4609 17.4931 16.6531 17.3997C16.9717 17.2293 17.2518 16.9985 17.488 16.7017C17.7242 16.4105 17.878 16.0422 17.9494 15.6081C18.0098 15.2124 17.9659 14.7672 17.8286 14.2726C17.6857 13.7615 17.4605 13.3383 17.153 13.0031M15.6315 15.7235C15.5436 15.8554 15.4228 15.9598 15.269 16.0422C15.1042 16.1302 14.9065 16.2016 14.6758 16.2676L12.8083 16.7952L12.2316 14.7507L14.0002 14.2506C14.544 14.0967 14.9504 14.0693 15.2031 14.1682C15.4502 14.2671 15.626 14.5034 15.7249 14.8716C15.8237 15.2179 15.7908 15.5037 15.626 15.7235M35.015 13.2064C35.2676 12.7558 35.3665 12.2007 35.3006 11.5412C35.2127 10.6509 34.9051 10.0189 34.3778 9.64516C33.878 9.26045 33.1145 9.11756 32.0819 9.21649L27.7372 9.63417L28.5556 18.1306L30.544 17.9383L30.2364 14.7233L32.0215 14.5529L34.1142 17.5975L36.3716 17.3777L33.9769 14.0912C34.4437 13.9044 34.7898 13.6076 35.015 13.2064ZM33.087 12.4755C32.8948 12.6349 32.5323 12.7393 32.0105 12.7942L30.0661 12.9811L29.8958 11.2115L31.8402 11.0246C32.3785 10.9751 32.7575 11.0026 32.9662 11.1125C33.1585 11.2279 33.2683 11.4423 33.2958 11.7665C33.3287 12.0853 33.2573 12.3216 33.0816 12.481M21.1516 10.7553L19.1797 19.7959L21.2999 19.4057L21.6624 17.3502L24.9415 16.7457L26.029 18.5373L28.2371 18.1306L23.1509 10.3816L21.1516 10.7498V10.7553ZM21.9974 15.4927L22.4863 12.7613L23.9528 15.1354L21.9974 15.4927ZM57.4798 12.2502C57.8423 12.0193 58.3586 11.9534 59.0342 12.0633L61.9013 12.514L62.1705 10.8048L59.4461 10.3761C59.0287 10.3101 58.6662 10.2717 58.3476 10.2607C58.0235 10.2497 57.7214 10.2607 57.4413 10.3101C57.1557 10.3541 56.9085 10.4146 56.6943 10.497C56.4746 10.5794 56.2659 10.6894 56.0572 10.8267C55.6727 11.1235 55.3816 11.5082 55.1948 11.9754C54.9916 12.448 54.8049 13.2174 54.6346 14.2781L54.0249 18.1691L56.0078 18.4824L56.5295 15.1519L61.374 15.9158L61.6432 14.2176L56.8042 13.4537C56.8921 12.8822 57.1227 12.481 57.4908 12.2611" fill="white"></path><path d="M39.9964 72.6157C35.4485 72.6157 31.752 76.3144 31.752 80.8649C31.752 85.4154 35.4485 89.114 39.9964 89.114C44.5443 89.114 48.2463 85.4154 48.2463 80.8649C48.2463 76.3144 44.5443 72.6157 39.9964 72.6157ZM39.9964 88.3556C35.8714 88.3556 32.5154 84.9977 32.5154 80.8649C32.5154 76.7321 35.8714 73.3741 39.9964 73.3741C44.1213 73.3741 47.4828 76.7321 47.4828 80.8649C47.4828 84.9977 44.1268 88.3556 39.9964 88.3556Z" fill="white"></path><path d="M34.373 79.7163C37.9048 78.837 43.0843 78.8425 41.8705 83.7117C46.1877 80.5846 44.3367 75.3527 42.1945 75.0999C40.7335 75.8803 34.373 79.7163 34.373 79.7163Z" fill="white"></path><path d="M35.0977 83.75H45.2151C45.2151 83.75 43.5947 86.4814 40.0795 86.5419C36.5587 86.5968 35.0977 83.75 35.0977 83.75Z" fill="white"></path><path d="M37.8659 55.4139C37.7671 55.7876 37.6517 56.1558 37.5254 56.524C41.6339 56.8483 46.4179 54.8808 47.4835 53.7267C45.8192 54.3257 41.7657 55.7381 37.8659 55.4194" fill="white"></path><path d="M39.8386 44.4001C39.8002 44.8285 39.7452 45.257 39.6738 45.6799C41.9533 45.9435 44.1997 45.2075 45.5454 44.0706C43.5956 44.2793 41.7995 44.5374 39.8386 44.4001Z" fill="white"></path><path d="M40.2002 20.0266H39.8762C26.1007 20.0266 11.6606 22.9778 3.56445 26.5446C3.57544 26.9623 3.58642 27.3855 3.60839 27.8196C11.7155 24.2639 26.1281 21.3236 39.8762 21.3236H40.2002C53.9483 21.3236 68.3609 24.2584 76.468 27.8196C76.49 27.391 76.5009 26.9623 76.5119 26.5446C68.4158 22.9778 53.9757 20.0266 40.2002 20.0266Z" fill="white"></path><path d="M16.7586 24.7859C15.1383 25.1211 11.5901 26.1159 10.1565 26.5061C7.81666 32.0733 6.81151 72.7256 30.7923 87.7895C7.64639 68.4443 14.0673 33.0515 16.7586 24.7859Z" fill="white"></path><path d="M63.8676 24.7859C66.559 33.0515 72.9744 68.4443 49.834 87.7895C73.8148 72.7256 72.8041 32.0733 70.4698 26.5061C69.0417 26.1159 65.4879 25.1211 63.8676 24.7859Z" fill="white"></path></g><defs><clipPath id="clip0_1829_1423"><rect width="80" height="95" fill="white"></rect></clipPath></defs></svg> 